# This file uses centimeters as units for non-parametric coordinates.

mtllib Spider_Tree_2.mtl
g default
v -0.824436 -4.726750 0.836748
v -0.500000 -4.726750 1.000000
v 0.000000 -4.726750 1.000000
v 0.500000 -4.726750 1.000000
v 0.824436 -4.726750 0.836748
v -0.671616 -2.363375 0.642977
v -0.417148 -2.363375 0.861063
v 0.000000 -2.363375 0.861063
v 0.417148 -2.363375 0.861063
v 0.671616 -2.363375 0.642977
v -0.416276 0.157639 0.627557
v -0.252626 0.078820 0.800000
v 0.000000 0.000000 0.800000
v 0.331445 0.000000 0.800000
v 0.514801 0.000000 0.627557
v 0.093893 2.704995 0.526062
v 0.356319 1.947330 0.726763
v 0.753327 1.052029 0.727628
v 1.084765 1.035715 0.702357
v 2.795210 2.800186 0.296907
v 0.591592 4.677557 0.276829
v 0.620785 4.128140 0.276996
v 0.809129 1.394789 0.538656
v 1.973884 2.341273 0.394275
v 2.999124 3.148954 0.233523
v 0.621206 5.747704 0.205750
v 0.810716 3.521411 0.205750
v 0.809129 1.511794 0.500000
v 2.209339 2.771578 0.179409
v 3.624963 3.924232 0.105652
v 0.668826 6.918240 0.000000
v 0.827880 2.656615 0.000000
v 0.809129 1.713443 0.000000
v 2.345409 3.024612 -0.000000
v 4.049504 4.672153 0.000000
v 0.621206 5.747704 -0.205750
v 0.810716 3.521410 -0.205750
v 0.809129 1.511794 -0.500000
v 2.209339 2.771578 -0.179409
v 3.624963 3.924232 -0.105652
v 0.591592 4.677557 -0.276829
v 0.620785 4.128140 -0.276996
v 0.809129 1.394789 -0.538656
v 1.973884 2.341273 -0.394275
v 2.999124 3.148954 -0.233523
v 0.093893 2.704995 -0.526062
v 0.356319 1.947330 -0.726763
v 0.753327 1.052029 -0.727628
v 1.084765 1.035715 -0.702357
v 2.795210 2.800186 -0.296907
v -0.416276 0.157639 -0.627557
v -0.252626 0.078820 -0.800000
v 0.000000 0.000000 -0.800000
v 0.331445 0.000000 -0.800000
v 0.514801 0.000000 -0.627557
v -0.671616 -2.363375 -0.642977
v -0.417148 -2.363375 -0.861063
v 0.000000 -2.363375 -0.861063
v 0.417148 -2.363375 -0.861063
v 0.671616 -2.363375 -0.642977
v -0.824436 -4.726750 -0.836748
v -0.500000 -4.726750 -1.000000
v 0.000000 -4.726750 -1.000000
v 0.500000 -4.726750 -1.000000
v 0.824436 -4.726750 -0.836748
v -1.000000 -4.726750 -0.500000
v -0.500000 -4.726750 -0.500000
v 0.000000 -4.726750 -0.500000
v 0.500000 -4.726750 -0.500000
v 1.000000 -4.726750 -0.500000
v -1.000000 -4.726750 0.000000
v -0.500000 -4.726750 0.000000
v 0.000000 -4.726750 0.000000
v 0.500000 -4.726750 0.000000
v 1.000000 -4.726750 0.000000
v -1.000000 -4.726750 0.500000
v -0.500000 -4.726750 0.500000
v 0.000000 -4.726750 0.500000
v 0.500000 -4.726750 0.500000
v 1.000000 -4.726750 0.500000
v 0.834296 -2.363375 -0.430531
v 0.834296 -2.363375 0.000000
v 0.834296 -2.363375 0.430531
v 0.662891 0.000000 -0.400000
v 0.662891 0.000000 0.000000
v 0.662891 0.000000 0.400000
v 3.000375 2.800186 -0.235508
v 3.267206 3.047322 0.000000
v 3.000375 2.800186 0.235508
v -0.834296 -2.363375 -0.430531
v -0.834296 -2.363375 0.000000
v -0.834296 -2.363375 0.430531
v -0.603776 0.433508 -0.400000
v -0.603776 0.433508 0.000000
v -0.603776 0.433508 0.400000
v -0.055305 3.238421 -0.408442
v 0.255828 5.018830 0.000000
v -0.055305 3.238421 0.408442
vt 0.375000 0.000000
vt 0.437500 0.000000
vt 0.500000 0.000000
vt 0.562500 0.000000
vt 0.625000 0.000000
vt 0.375000 0.062500
vt 0.437500 0.062500
vt 0.500000 0.062500
vt 0.562500 0.062500
vt 0.625000 0.062500
vt 0.375000 0.125000
vt 0.437500 0.125000
vt 0.500000 0.125000
vt 0.562500 0.125000
vt 0.625000 0.125000
vt 0.375000 0.187500
vt 0.437500 0.187500
vt 0.500000 0.187500
vt 0.562500 0.187500
vt 0.625000 0.187500
vt 0.375000 0.250000
vt 0.437500 0.250000
vt 0.500000 0.250000
vt 0.562500 0.250000
vt 0.625000 0.250000
vt 0.375000 0.312500
vt 0.437500 0.312500
vt 0.500000 0.312500
vt 0.562500 0.312500
vt 0.625000 0.312500
vt 0.375000 0.375000
vt 0.437500 0.375000
vt 0.500000 0.375000
vt 0.562500 0.375000
vt 0.625000 0.375000
vt 0.375000 0.437500
vt 0.437500 0.437500
vt 0.500000 0.437500
vt 0.562500 0.437500
vt 0.625000 0.437500
vt 0.375000 0.500000
vt 0.437500 0.500000
vt 0.500000 0.500000
vt 0.562500 0.500000
vt 0.625000 0.500000
vt 0.375000 0.562500
vt 0.437500 0.562500
vt 0.500000 0.562500
vt 0.562500 0.562500
vt 0.625000 0.562500
vt 0.375000 0.625000
vt 0.437500 0.625000
vt 0.500000 0.625000
vt 0.562500 0.625000
vt 0.625000 0.625000
vt 0.375000 0.687500
vt 0.437500 0.687500
vt 0.500000 0.687500
vt 0.562500 0.687500
vt 0.625000 0.687500
vt 0.375000 0.750000
vt 0.437500 0.750000
vt 0.500000 0.750000
vt 0.562500 0.750000
vt 0.625000 0.750000
vt 0.375000 0.812500
vt 0.437500 0.812500
vt 0.500000 0.812500
vt 0.562500 0.812500
vt 0.625000 0.812500
vt 0.375000 0.875000
vt 0.437500 0.875000
vt 0.500000 0.875000
vt 0.562500 0.875000
vt 0.625000 0.875000
vt 0.375000 0.937500
vt 0.437500 0.937500
vt 0.500000 0.937500
vt 0.562500 0.937500
vt 0.625000 0.937500
vt 0.375000 1.000000
vt 0.437500 1.000000
vt 0.500000 1.000000
vt 0.562500 1.000000
vt 0.625000 1.000000
vt 0.875000 0.000000
vt 0.812500 0.000000
vt 0.750000 0.000000
vt 0.687500 0.000000
vt 0.875000 0.062500
vt 0.812500 0.062500
vt 0.750000 0.062500
vt 0.687500 0.062500
vt 0.875000 0.125000
vt 0.812500 0.125000
vt 0.750000 0.125000
vt 0.687500 0.125000
vt 0.875000 0.187500
vt 0.812500 0.187500
vt 0.750000 0.187500
vt 0.687500 0.187500
vt 0.875000 0.250000
vt 0.812500 0.250000
vt 0.750000 0.250000
vt 0.687500 0.250000
vt 0.125000 0.000000
vt 0.187500 0.000000
vt 0.250000 0.000000
vt 0.312500 0.000000
vt 0.125000 0.062500
vt 0.187500 0.062500
vt 0.250000 0.062500
vt 0.312500 0.062500
vt 0.125000 0.125000
vt 0.187500 0.125000
vt 0.250000 0.125000
vt 0.312500 0.125000
vt 0.125000 0.187500
vt 0.187500 0.187500
vt 0.250000 0.187500
vt 0.312500 0.187500
vt 0.125000 0.250000
vt 0.187500 0.250000
vt 0.250000 0.250000
vt 0.312500 0.250000
vn -0.548067 0.085890 0.832013
vn -0.249967 0.073622 0.965451
vn -0.290342 0.063239 0.954831
vn -0.607274 0.078167 0.790637
vn 0.000000 0.058686 0.998276
vn 0.000623 0.044187 0.999023
vn 0.249967 0.073622 0.965451
vn 0.276883 0.057533 0.959180
vn 0.548067 0.085890 0.832013
vn 0.602477 0.068172 0.795220
vn -0.303543 0.073162 0.950005
vn -0.552374 0.120039 0.824908
vn 0.017531 0.028799 0.999432
vn 0.308926 -0.033643 0.950491
vn 0.624208 -0.183769 0.759337
vn 0.039689 0.151499 0.987660
vn -0.087405 0.161733 0.982956
vn 0.097310 0.108493 0.989323
vn 0.347136 -0.123139 0.929695
vn 0.020606 0.197854 0.980015
vn 0.083192 0.160003 0.983605
vn 0.035473 0.159525 0.986556
vn 0.339686 0.219805 0.914494
vn -0.019768 0.237025 0.971303
vn -0.010674 0.225783 0.974119
vn 0.485396 0.038298 0.873455
vn 0.515526 0.048083 0.855524
vn 0.937996 0.066043 0.340297
vn 0.977714 0.052689 0.203222
vn -0.078540 0.462391 0.883191
vn 0.301898 0.538706 0.786545
vn -0.279252 0.487826 0.827070
vn -0.486521 0.631863 0.603363
vn -0.266818 0.435094 0.859943
vn -0.372492 0.443216 0.815358
vn 1.000000 0.000906 -0.000000
vn 0.998560 0.053648 -0.000000
vn 0.401573 0.915827 0.000000
vn -0.643875 0.765131 -0.000000
vn -0.649537 0.760330 0.000000
vn 0.937996 0.066043 -0.340297
vn 0.977714 0.052689 -0.203222
vn 0.301898 0.538706 -0.786545
vn -0.486521 0.631863 -0.603363
vn -0.372492 0.443216 -0.815358
vn 0.515527 0.048083 -0.855524
vn 0.485397 0.038298 -0.873455
vn -0.078540 0.462391 -0.883191
vn -0.279252 0.487826 -0.827070
vn -0.266817 0.435094 -0.859943
vn 0.035473 0.159525 -0.986556
vn 0.083192 0.160003 -0.983605
vn 0.039689 0.151499 -0.987660
vn -0.087405 0.161733 -0.982956
vn 0.339686 0.219805 -0.914494
vn 0.097310 0.108493 -0.989323
vn -0.019768 0.237025 -0.971303
vn 0.347136 -0.123139 -0.929695
vn -0.010674 0.225783 -0.974119
vn 0.020606 0.197854 -0.980015
vn -0.303543 0.073162 -0.950005
vn -0.552375 0.120039 -0.824908
vn 0.017531 0.028799 -0.999432
vn 0.308926 -0.033643 -0.950491
vn 0.624208 -0.183769 -0.759337
vn -0.290342 0.063239 -0.954831
vn -0.607274 0.078167 -0.790637
vn 0.000623 0.044187 -0.999023
vn 0.276883 0.057533 -0.959180
vn 0.602477 0.068172 -0.795220
vn -0.249967 0.073622 -0.965451
vn -0.548067 0.085890 -0.832013
vn 0.000000 0.058686 -0.998276
vn 0.249967 0.073622 -0.965451
vn 0.548067 0.085890 -0.832013
vn 0.000000 -1.000000 0.000000
vn 0.000000 -1.000000 0.000000
vn 0.000000 -1.000000 0.000000
vn 0.000000 -1.000000 0.000000
vn 0.000000 -1.000000 0.000000
vn 0.000000 -1.000000 0.000000
vn 0.000000 -1.000000 0.000000
vn 0.000000 -1.000000 0.000000
vn 0.000000 -1.000000 0.000000
vn 0.000000 -1.000000 0.000000
vn 0.000000 -1.000000 0.000000
vn 0.000000 -1.000000 0.000000
vn 0.000000 -1.000000 0.000000
vn 0.000000 -1.000000 0.000000
vn 0.000000 -1.000000 0.000000
vn 0.000000 -1.000000 0.000000
vn 0.000000 -1.000000 0.000000
vn 0.000000 -1.000000 0.000000
vn 0.000000 -1.000000 0.000000
vn 0.000000 -1.000000 0.000000
vn 0.000000 -1.000000 0.000000
vn 0.000000 -1.000000 0.000000
vn 0.000000 -1.000000 0.000000
vn 0.000000 -1.000000 0.000000
vn 0.000000 -1.000000 0.000000
vn 0.971311 0.079591 -0.224098
vn 0.848292 0.086261 -0.522456
vn 0.833678 0.075331 -0.547088
vn 0.970805 0.075882 -0.227551
vn 0.997551 0.069942 0.000000
vn 0.997471 0.071071 0.000000
vn 0.971311 0.079591 0.224098
vn 0.970805 0.075882 0.227551
vn 0.848292 0.086261 0.522456
vn 0.833678 0.075331 0.547088
vn 0.736016 -0.156846 -0.658543
vn 0.892983 -0.306904 -0.329230
vn 0.937882 -0.346955 0.000000
vn 0.892983 -0.306904 0.329230
vn 0.736016 -0.156846 0.658543
vn 0.553421 -0.382113 -0.740078
vn 0.755084 -0.598851 -0.266883
vn 0.831045 -0.556205 -0.000000
vn 0.755084 -0.598851 0.266883
vn 0.553421 -0.382113 0.740078
vn 0.216447 0.006334 -0.976274
vn 0.777277 -0.371594 -0.507700
vn 0.900622 -0.434604 -0.000000
vn 0.777277 -0.371594 0.507699
vn 0.216447 0.006334 0.976274
vn -0.848292 0.086261 -0.522456
vn -0.971311 0.079591 -0.224098
vn -0.965819 0.081850 -0.245955
vn -0.804520 0.080691 -0.588419
vn -0.997551 0.069942 0.000000
vn -0.997092 0.076213 0.000000
vn -0.971311 0.079591 0.224098
vn -0.965819 0.081850 0.245955
vn -0.848292 0.086261 0.522456
vn -0.804520 0.080691 0.588419
vn -0.934912 0.143068 -0.324763
vn -0.700483 0.090043 -0.707966
vn -0.989890 0.141835 0.000000
vn -0.934912 0.143068 0.324763
vn -0.700483 0.090043 0.707966
vn -0.893676 0.203976 -0.399672
vn -0.493355 0.123866 -0.860963
vn -0.966324 0.257328 0.000000
vn -0.893676 0.203976 0.399672
vn -0.493355 0.123866 0.860963
vn -0.739121 0.215798 -0.638069
vn -0.049652 0.113071 -0.992346
vn -0.962280 0.272061 0.000000
vn -0.739121 0.215798 0.638069
vn -0.049652 0.113071 0.992346
s 1
g Spider_Tree
usemtl initialShadingGroup
f 1/1/1 2/2/2 7/7/3 6/6/4
f 2/2/2 3/3/5 8/8/6 7/7/3
f 3/3/5 4/4/7 9/9/8 8/8/6
f 4/4/7 5/5/9 10/10/10 9/9/8
f 6/6/4 7/7/3 12/12/11 11/11/12
f 7/7/3 8/8/6 13/13/13 12/12/11
f 8/8/6 9/9/8 14/14/14 13/13/13
f 9/9/8 10/10/10 15/15/15 14/14/14
f 11/11/12 12/12/11 17/17/16 16/16/17
f 12/12/11 13/13/13 18/18/18 17/17/16
f 13/13/13 14/14/14 19/19/19 18/18/18
f 14/14/14 15/15/15 20/20/20 19/19/19
f 16/16/17 17/17/16 22/22/21 21/21/22
f 17/17/16 18/18/18 23/23/23 22/22/21
f 18/18/18 19/19/19 24/24/24 23/23/23
f 19/19/19 20/20/20 25/25/25 24/24/24
s 2
f 21/21/26 22/22/27 27/27/28 26/26/29
f 22/22/27 23/23/30 28/28/31 27/27/28
f 23/23/30 24/24/32 29/29/33 28/28/31
f 24/24/32 25/25/34 30/30/35 29/29/33
f 26/26/29 27/27/28 32/32/36 31/31/37
f 27/27/28 28/28/31 33/33/38 32/32/36
f 28/28/31 29/29/33 34/34/39 33/33/38
f 29/29/33 30/30/35 35/35/40 34/34/39
f 31/31/37 32/32/36 37/37/41 36/36/42
f 32/32/36 33/33/38 38/38/43 37/37/41
f 33/33/38 34/34/39 39/39/44 38/38/43
f 34/34/39 35/35/40 40/40/45 39/39/44
f 36/36/42 37/37/41 42/42/46 41/41/47
f 37/37/41 38/38/43 43/43/48 42/42/46
f 38/38/43 39/39/44 44/44/49 43/43/48
f 39/39/44 40/40/45 45/45/50 44/44/49
s 3
f 41/41/51 42/42/52 47/47/53 46/46/54
f 42/42/52 43/43/55 48/48/56 47/47/53
f 43/43/55 44/44/57 49/49/58 48/48/56
f 44/44/57 45/45/59 50/50/60 49/49/58
f 46/46/54 47/47/53 52/52/61 51/51/62
f 47/47/53 48/48/56 53/53/63 52/52/61
f 48/48/56 49/49/58 54/54/64 53/53/63
f 49/49/58 50/50/60 55/55/65 54/54/64
f 51/51/62 52/52/61 57/57/66 56/56/67
f 52/52/61 53/53/63 58/58/68 57/57/66
f 53/53/63 54/54/64 59/59/69 58/58/68
f 54/54/64 55/55/65 60/60/70 59/59/69
f 56/56/67 57/57/66 62/62/71 61/61/72
f 57/57/66 58/58/68 63/63/73 62/62/71
f 58/58/68 59/59/69 64/64/74 63/63/73
f 59/59/69 60/60/70 65/65/75 64/64/74
s 4
f 61/61/76 62/62/77 67/67/78 66/66/79
f 62/62/77 63/63/80 68/68/81 67/67/78
f 63/63/80 64/64/82 69/69/83 68/68/81
f 64/64/82 65/65/84 70/70/85 69/69/83
f 66/66/79 67/67/78 72/72/86 71/71/87
f 67/67/78 68/68/81 73/73/88 72/72/86
f 68/68/81 69/69/83 74/74/89 73/73/88
f 69/69/83 70/70/85 75/75/90 74/74/89
f 71/71/87 72/72/86 77/77/91 76/76/92
f 72/72/86 73/73/88 78/78/93 77/77/91
f 73/73/88 74/74/89 79/79/94 78/78/93
f 74/74/89 75/75/90 80/80/95 79/79/94
f 76/76/92 77/77/91 2/82/96 1/81/97
f 77/77/91 78/78/93 3/83/98 2/82/96
f 78/78/93 79/79/94 4/84/99 3/83/98
f 79/79/94 80/80/95 5/85/100 4/84/99
s 5
f 70/87/101 65/86/102 60/90/103 81/91/104
f 75/88/105 70/87/101 81/91/104 82/92/106
f 80/89/107 75/88/105 82/92/106 83/93/108
f 5/5/109 80/89/107 83/93/108 10/10/110
f 81/91/104 60/90/103 55/94/111 84/95/112
f 82/92/106 81/91/104 84/95/112 85/96/113
f 83/93/108 82/92/106 85/96/113 86/97/114
f 10/10/110 83/93/108 86/97/114 15/15/115
f 84/95/112 55/94/111 50/98/116 87/99/117
f 85/96/113 84/95/112 87/99/117 88/100/118
f 86/97/114 85/96/113 88/100/118 89/101/119
f 15/15/115 86/97/114 89/101/119 20/20/120
f 87/99/117 50/98/116 45/102/121 40/103/122
f 88/100/118 87/99/117 40/103/122 35/104/123
f 89/101/119 88/100/118 35/104/123 30/105/124
f 20/20/120 89/101/119 30/105/124 25/25/125
s 6
f 61/106/126 66/107/127 90/111/128 56/110/129
f 66/107/127 71/108/130 91/112/131 90/111/128
f 71/108/130 76/109/132 92/113/133 91/112/131
f 76/109/132 1/1/134 6/6/135 92/113/133
f 56/110/129 90/111/128 93/115/136 51/114/137
f 90/111/128 91/112/131 94/116/138 93/115/136
f 91/112/131 92/113/133 95/117/139 94/116/138
f 92/113/133 6/6/135 11/11/140 95/117/139
f 51/114/137 93/115/136 96/119/141 46/118/142
f 93/115/136 94/116/138 97/120/143 96/119/141
f 94/116/138 95/117/139 98/121/144 97/120/143
f 95/117/139 11/11/140 16/16/145 98/121/144
f 46/118/142 96/119/141 36/123/146 41/122/147
f 96/119/141 97/120/143 31/124/148 36/123/146
f 97/120/143 98/121/144 26/125/149 31/124/148
f 98/121/144 16/16/145 21/21/150 26/125/149
